<svg xmlns="http://www.w3.org/2000/svg" width="290.5" height="74" viewBox="0 0 581 148">
  <metadata><?xpacket begin="﻿" id="W5M0MpCehiHzreSzNTczkc9d"?>
<x:xmpmeta xmlns:x="adobe:ns:meta/" x:xmptk="Adobe XMP Core 5.6-c138 79.159824, 2016/09/14-01:09:01        ">
   <rdf:RDF xmlns:rdf="http://www.w3.org/1999/02/22-rdf-syntax-ns#">
      <rdf:Description rdf:about=""/>
   </rdf:RDF>
</x:xmpmeta>
                                                                                                    
                                                                                                    
                                                                                                    
                                                                                                    
                                                                                                    
                                                                                                    
                                                                                                    
                                                                                                    
                                                                                                    
                                                                                                    
                                                                                                    
                                                                                                    
                                                                                                    
                                                                                                    
                                                                                                    
                                                                                                    
                                                                                                    
                                                                                                    
                                                                                                    
                                                                                                    
                           
<?xpacket end="w"?></metadata>
<defs>
    <style>
      .cls-1 {
        fill: #f7ff04;
      }

      .cls-1, .cls-2, .cls-3 {
        fill-rule: evenodd;
      }

      .cls-2 {
        fill: #ff3;
      }

      .cls-3 {
        fill: #f60;
      }
    </style>
  </defs>
  <path id="LOGO1_copy_2" data-name="LOGO1 copy 2" class="cls-1" d="M6,136.382V83.452l7.124-13.368H27.3v14.7l7.52-14.7h7.916l3.008,9.051,4.75-9.051H64.819V122.55l-6.966,13.832H39.092L33.55,114.489l-8.865,21.893H6Zm39.158-1.7H56.179V85.247H45.161V134.68Zm-25.286,0h3.4l8.615-34.038,8.561,34.038h3.329V112.323L34.5,85.247h-5.54l-9.09,27.463v21.97Zm-12.128,0H18.685V85.247H7.746V134.68Z"/>
  <path id="EB_DEVELOPMENT" class="cls-2" d="M96.885,131.879a4.4,4.4,0,0,0,1.3-3.3,4.438,4.438,0,0,0-4.64-4.632,15.253,15.253,0,0,1-14.6-10.9h14.6a4.438,4.438,0,0,0,4.64-4.632,4.4,4.4,0,0,0-1.3-3.3,4.6,4.6,0,0,0-3.343-1.26h-14.4a15.13,15.13,0,0,1,14.4-10.286,4.438,4.438,0,0,0,4.64-4.632,4.4,4.4,0,0,0-1.3-3.3,4.6,4.6,0,0,0-3.343-1.26,24.211,24.211,0,0,0-24.428,24.386,24.21,24.21,0,0,0,24.428,24.387A4.6,4.6,0,0,0,96.885,131.879Zm6-.137A4.6,4.6,0,0,0,106.233,133a4.33,4.33,0,0,0,4.571-4.564v-29.7a5.24,5.24,0,0,1,5.186-5.177,5.13,5.13,0,0,1,3.719,1.5,5.174,5.174,0,0,1,0,7.356,5.376,5.376,0,0,1-3.719,1.567,5.654,5.654,0,0,0-3.616,1.294,4.363,4.363,0,0,0-.1,6.369,5.414,5.414,0,0,0,3.242,1.465,7.241,7.241,0,0,1,4.025,1.771,4.782,4.782,0,0,1,1.706,3.747,5.239,5.239,0,0,1-5.151,5.177,4.574,4.574,0,0,0-3.378,1.294,4.51,4.51,0,0,0-1.3,3.338A4.431,4.431,0,0,0,115.99,133a14.038,14.038,0,0,0,10.27-4.156,13.817,13.817,0,0,0,4.2-10.217,13.563,13.563,0,0,0-4.026-9.878,14.5,14.5,0,0,0-.17-20.231,14.726,14.726,0,0,0-20.505,0,13.877,13.877,0,0,0-4.162,10.218v29.7A4.4,4.4,0,0,0,102.889,131.742Zm36.1-8.548a4.6,4.6,0,0,0-3.344,1.26,4.4,4.4,0,0,0-1.3,3.3,4.439,4.439,0,0,0,4.64,4.633h25.588a4.416,4.416,0,0,0,3.309-1.295,4.58,4.58,0,0,0,1.262-3.338,4.329,4.329,0,0,0-4.571-4.563H138.985Zm45.546,2.043a4.579,4.579,0,0,0-1.262,3.338,4.329,4.329,0,0,0,4.571,4.564,24.1,24.1,0,0,0,24.428-24.387A24.1,24.1,0,0,0,187.84,84.366H177.673A4.657,4.657,0,0,0,173.1,88.93v39.509A4.33,4.33,0,0,0,177.673,133a4.6,4.6,0,0,0,3.344-1.261,4.4,4.4,0,0,0,1.3-3.3V93.562h5.527a15.191,15.191,0,1,1,0,30.381A4.418,4.418,0,0,0,184.531,125.237Zm59.262,6.642a4.405,4.405,0,0,0,1.3-3.3,4.437,4.437,0,0,0-4.64-4.632,15.254,15.254,0,0,1-14.6-10.9h14.6a4.437,4.437,0,0,0,4.64-4.632,4.405,4.405,0,0,0-1.3-3.3,4.6,4.6,0,0,0-3.344-1.26h-14.4a15.13,15.13,0,0,1,14.4-10.286,4.438,4.438,0,0,0,4.64-4.632,4.405,4.405,0,0,0-1.3-3.3,4.6,4.6,0,0,0-3.344-1.26,24.21,24.21,0,0,0-24.428,24.386,24.21,24.21,0,0,0,24.428,24.387A4.6,4.6,0,0,0,243.793,131.879ZM250.275,84.3a4.835,4.835,0,0,0-3.344,1.294,4.145,4.145,0,0,0-1.433,3.2,5.134,5.134,0,0,0,.273,1.635l13.715,39.509q1.365,3.883,4.367,3.883t4.367-3.883l13.647-39.509a5,5,0,0,0,.341-1.635,4.142,4.142,0,0,0-1.433-3.2,4.835,4.835,0,0,0-3.343-1.294,4.176,4.176,0,0,0-4.231,3.133l-9.348,26.975-9.348-26.975a4.176,4.176,0,0,0-4.23-3.133h0Zm60.182,47.581a4.405,4.405,0,0,0,1.3-3.3,4.437,4.437,0,0,0-4.64-4.632,15.254,15.254,0,0,1-14.6-10.9h14.6a4.437,4.437,0,0,0,4.64-4.632,4.405,4.405,0,0,0-1.3-3.3,4.6,4.6,0,0,0-3.344-1.26h-14.4a15.13,15.13,0,0,1,14.4-10.286,4.438,4.438,0,0,0,4.64-4.632,4.405,4.405,0,0,0-1.3-3.3,4.6,4.6,0,0,0-3.344-1.26,24.212,24.212,0,0,0-24.428,24.386,24.211,24.211,0,0,0,24.428,24.387A4.6,4.6,0,0,0,310.457,131.879Zm25.758-.137a4.463,4.463,0,0,0,1.263-3.3,4.582,4.582,0,0,0-1.263-3.338,4.418,4.418,0,0,0-3.309-1.294h-3a5.47,5.47,0,0,1-5.527-5.518V88.93a4.4,4.4,0,0,0-1.3-3.3,4.6,4.6,0,0,0-3.343-1.26,4.329,4.329,0,0,0-4.572,4.564v29.359A14.442,14.442,0,0,0,329.9,133h3A4.48,4.48,0,0,0,336.215,131.742ZM348.258,91.45a24.642,24.642,0,0,0,0,34.6,24.428,24.428,0,0,0,41.76-17.3A24.52,24.52,0,0,0,348.258,91.45Zm28.147,6.505a15.593,15.593,0,1,1-10.815-4.394A14.665,14.665,0,0,1,376.405,97.956Zm31.32,13.283a4.458,4.458,0,0,0-1.263,3.3,4.572,4.572,0,0,0,1.263,3.338,4.413,4.413,0,0,0,3.309,1.3,17.406,17.406,0,1,0,0-34.809,17.115,17.115,0,0,0-17.4,17.37v26.7A4.432,4.432,0,0,0,398.206,133a4.6,4.6,0,0,0,3.343-1.261,4.4,4.4,0,0,0,1.3-3.3v-26.7a8.147,8.147,0,0,1,8.188-8.174,8.019,8.019,0,0,1,5.834,2.384,7.825,7.825,0,0,1,2.422,5.79,8.264,8.264,0,0,1-8.256,8.243A4.477,4.477,0,0,0,407.725,111.239Zm63.764,22.036a14.552,14.552,0,0,0,14.738,14.714H486.5a4.6,4.6,0,0,0,3.344-1.261,4.4,4.4,0,0,0,1.3-3.3,4.437,4.437,0,0,0-4.64-4.632h-0.273a5.472,5.472,0,0,1-5.527-5.518V99.08a14.665,14.665,0,0,0-24.223-11.171A14.66,14.66,0,0,0,432.186,99.08v29.359a4.394,4.394,0,0,0,1.3,3.3A4.6,4.6,0,0,0,436.826,133a4.33,4.33,0,0,0,4.571-4.564V99.08a5.527,5.527,0,0,1,11.054,0v29.359A4.332,4.332,0,0,0,457.023,133a4.6,4.6,0,0,0,3.344-1.261,4.4,4.4,0,0,0,1.3-3.3v-32.7a5.418,5.418,0,0,1,8.222-.545,5.357,5.357,0,0,1,1.6,3.883v34.2Zm40.735-1.4a4.4,4.4,0,0,0,1.3-3.3,4.439,4.439,0,0,0-4.64-4.632,15.254,15.254,0,0,1-14.6-10.9h14.6a4.439,4.439,0,0,0,4.64-4.632,4.4,4.4,0,0,0-1.3-3.3,4.6,4.6,0,0,0-3.343-1.26h-14.4a15.13,15.13,0,0,1,14.4-10.286,4.439,4.439,0,0,0,4.64-4.632,4.4,4.4,0,0,0-1.3-3.3,4.6,4.6,0,0,0-3.343-1.26,24.21,24.21,0,0,0-24.428,24.386,24.21,24.21,0,0,0,24.428,24.387A4.6,4.6,0,0,0,512.224,131.879Zm43.329,14.849a4.4,4.4,0,0,0,1.3-3.3,4.437,4.437,0,0,0-4.64-4.632h-0.273a5.472,5.472,0,0,1-5.527-5.518l-0.068-35.013a12.848,12.848,0,0,0-4.435-9.843,14.726,14.726,0,0,0-10.235-4.053A14.552,14.552,0,0,0,516.932,99.08v29.359A4.331,4.331,0,0,0,521.5,133a4.6,4.6,0,0,0,3.343-1.261,4.4,4.4,0,0,0,1.3-3.3V99.08a5.47,5.47,0,0,1,5.527-5.518,5.206,5.206,0,0,1,3.855,1.635,5.361,5.361,0,0,1,1.6,3.883l0.068,30.244v3.951a14.442,14.442,0,0,0,14.738,14.714h0.273A4.6,4.6,0,0,0,555.553,146.728Zm14.465-53.166h6.346A4.439,4.439,0,0,0,581,88.93a4.4,4.4,0,0,0-1.3-3.3,4.6,4.6,0,0,0-3.343-1.26H554.8a4.6,4.6,0,0,0-3.344,1.26,4.4,4.4,0,0,0-1.3,3.3,4.438,4.438,0,0,0,4.64,4.632h6v34.877a4.395,4.395,0,0,0,1.3,3.3A4.6,4.6,0,0,0,565.446,133a4.331,4.331,0,0,0,4.572-4.564V93.562Z"/>
  <path id="LOGO1_copy" data-name="LOGO1 copy" class="cls-2" d="M6.472-.1v53.5l7.04,13.512h14V52.062l7.432,14.857h7.822l2.973-9.149,4.694,9.149H64.593V13.886L57.71-.1H39.17l-5.476,22.13L24.934-.1H6.472Zm38.7,1.72H56.055V51.593H45.167V1.625Zm-24.987,0h3.358l8.514,34.407,8.46-34.407H43.8v22.6L34.637,51.593H29.162L20.18,23.833V1.625ZM8.2,1.625H19V51.593H8.2V1.625Zm58.2,40.35V53.349l7.05,13.571H87.779V55.938L80.964,41.975H66.395Zm1.723,1.72H79.163v7.9H68.118v-7.9ZM91.852-.1v53.5l7.076,13.512h14V41.505l12.141,25.414h13.943V13.886L132.246-.1H117.857v26.04L106.03-.1H91.852Zm27.729,1.72h10.888V51.593H119.581V1.625ZM105.728,5.613l12.443,25.492V48.23L105.716,22.973ZM93.575,1.625h10.81V51.593H93.575V1.625ZM143.158-.1v53.5l7.05,13.512h14.8V51.358l1.958-2.971,9.4,18.533h15.9L176.918,35.052l14.805-21.166L184.986-.1H168.537l-5.8,9.54L158.2-.1H143.158Zm26.4,1.72H181.7L169.634,18.906l-4.622-9.54Zm-6.031,9.853,19.269,40.115H169.555l-8.773-20.879-2.35,3.6V19.923ZM144.881,1.625h11.593V51.593H144.881V1.625Z"/>
  <path id="design_._front_end_._imagery" data-name="design . front end . imagery" class="cls-3" d="M209.45,62.95a4.8,4.8,0,0,0,4.322-2.271v1.979h3.964V38.165h-4.289V46.08a4.728,4.728,0,0,0-4-1.849c-3.283,0-5.427,2.044-5.427,6.683v5.321C204.023,60.907,206.167,62.95,209.45,62.95Zm1.462-3.763c-1.56,0-2.632-1.038-2.632-3.277V51.271c0-2.206,1.04-3.244,2.632-3.244,1.5,0,2.6.973,2.6,3.147V55.91C213.512,58.149,212.439,59.187,210.912,59.187ZM229.6,56.819v0.389a2.334,2.334,0,0,1-2.6,2.3,2.681,2.681,0,0,1-2.632-2.725V54.807h9.456V51.239c0-4.477-2.535-7.04-6.824-7.04-4.355,0-6.857,2.758-6.857,7.2v4.444c0,4.38,2.5,7.137,6.857,7.137,4.289,0,6.824-2.693,6.824-6.034v-0.13H229.6Zm-5.232-6.326A2.471,2.471,0,0,1,227,47.7c1.592,0,2.6.811,2.6,3.244v0.876h-5.232v-1.33ZM242.145,44.1c-4.029,0-6.434,2.044-6.434,5.385,0,6.424,9.2,4.866,9.2,8.046,0,1.038-.943,1.947-2.568,1.947a2.572,2.572,0,0,1-2.827-2.855h-4.224c0,4.055,2.7,6.456,7.051,6.456,4.42,0,6.825-1.979,6.825-5.515,0-6.326-9.294-4.672-9.294-8.078,0-1.1.845-1.752,2.307-1.752,1.56,0,2.665.551,2.665,2.6h4.127C248.97,46.178,246.533,44.1,242.145,44.1Zm13.586,0.324h-4.225V62.658h4.225V44.426Zm0.488-4.769a2.568,2.568,0,1,0-5.135,0A2.568,2.568,0,0,0,256.219,39.657Zm6.4,11.582c0-2.239,1.04-3.244,2.6-3.244,1.625,0,2.6.941,2.6,3.471v3.99c0,2.725-.91,3.763-2.6,3.763-1.788,0-2.6-1.071-2.6-3.828V51.239Zm5.2,12.588c0,1.687-.845,2.5-2.568,2.5s-2.567-.876-2.567-2.141h-4.095c0,2.79,1.365,5.45,6.662,5.45,5.265,0,6.792-2.368,6.792-6.748V44.426h-3.964V46.47a4.917,4.917,0,0,0-4.453-2.239c-3.152,0-5.264,2.076-5.264,6.683V56.2c0,4.672,2.145,6.716,5.394,6.716a4.24,4.24,0,0,0,4.063-2.271v3.179ZM279.2,51.3c0-2.336.878-3.277,2.6-3.277,1.657,0,2.632.973,2.632,3.212v11.42h4.258V50.914c0-4.639-2.145-6.683-5.428-6.683a4.869,4.869,0,0,0-4.322,2.271V44.426h-3.964V62.658H279.2V51.3Zm23.368,9.051a2.568,2.568,0,1,0-5.135,0A2.568,2.568,0,0,0,302.564,60.355Zm17.452-22.19c-0.357-.032-1.007-0.1-1.625-0.1-4.322,0-5.817,1.882-5.849,6.391h-1.82v3.731h1.82V62.658H316.8V48.189h3.185V44.458H316.8c0-2.271.747-3.017,3.217-2.628V38.165Zm10.92,6.067c-2.079-.26-4.289.649-4.809,2.66V44.426h-3.965V62.658h4.225V52.634c0-2.92,1.3-4.477,4.549-4.218V44.231Zm7.8,18.752c4.257,0,6.825-2.758,6.825-7.235v-4.38c0-4.315-2.568-7.137-6.825-7.137-4.387,0-6.857,2.822-6.857,7.137v4.38C331.88,60.225,334.35,62.983,338.737,62.983Zm0-14.923a2.478,2.478,0,0,1,2.6,2.79v5.515a2.624,2.624,0,1,1-5.232,0V50.849A2.471,2.471,0,0,1,338.737,48.059ZM352.225,51.3c0-2.336.878-3.277,2.6-3.277,1.657,0,2.632.973,2.632,3.212v11.42h4.258V50.914c0-4.639-2.145-6.683-5.428-6.683a4.869,4.869,0,0,0-4.322,2.271V44.426H348V62.658h4.224V51.3Zm11.116-3.114H365.1V55.91c0,4.445,1.2,7.008,6.11,7.008a12.88,12.88,0,0,0,1.527-.1v-3.8a6.156,6.156,0,0,1-1.04.065c-2.047,0-2.372-1.006-2.372-3.082V48.189h3.347V44.458h-3.347V40.728h-2.828c0,3.017-.812,4.023-3.184,4.023C363.309,45.918,363.341,47.021,363.341,48.189Zm27.364,8.63v0.389a2.334,2.334,0,0,1-2.6,2.3,2.682,2.682,0,0,1-2.632-2.725V54.807h9.457V51.239c0-4.477-2.535-7.04-6.825-7.04-4.354,0-6.857,2.758-6.857,7.2v4.444c0,4.38,2.5,7.137,6.857,7.137,4.29,0,6.825-2.693,6.825-6.034v-0.13h-4.225Zm-5.232-6.326a2.471,2.471,0,0,1,2.632-2.79c1.593,0,2.6.811,2.6,3.244v0.876h-5.232v-1.33ZM401.431,51.3c0-2.336.878-3.277,2.6-3.277,1.657,0,2.632.973,2.632,3.212v11.42h4.257V50.914c0-4.639-2.144-6.683-5.427-6.683a4.869,4.869,0,0,0-4.322,2.271V44.426h-3.964V62.658h4.224V51.3Zm17,11.647a4.8,4.8,0,0,0,4.322-2.271v1.979h3.965V38.165h-4.29V46.08a4.728,4.728,0,0,0-4-1.849c-3.282,0-5.427,2.044-5.427,6.683v5.321C413,60.907,415.147,62.95,418.429,62.95Zm1.462-3.763c-1.559,0-2.632-1.038-2.632-3.277V51.271c0-2.206,1.04-3.244,2.632-3.244,1.5,0,2.6.973,2.6,3.147V55.91C422.491,58.149,421.419,59.187,419.891,59.187Zm21.028,1.168a2.567,2.567,0,1,0-5.134,0A2.567,2.567,0,0,0,440.919,60.355Zm13.455-15.929H450.15V62.658h4.224V44.426Zm0.488-4.769a2.568,2.568,0,1,0-5.135,0A2.568,2.568,0,0,0,454.862,39.657ZM461.719,50.4a2.117,2.117,0,0,1,2.145-2.433c1.267,0,2.177.714,2.177,2.5v12.2H470.3V50.4a2.133,2.133,0,0,1,2.145-2.433c1.17,0,2.145.681,2.145,2.5v12.2h4.257V50.622c0-4.412-1.787-6.391-4.842-6.391a4.935,4.935,0,0,0-4.484,2.5,4.528,4.528,0,0,0-4.29-2.5,4.058,4.058,0,0,0-3.77,2.076V44.426H457.5V62.658h4.224V50.4ZM486.387,62.95a4.763,4.763,0,0,0,4.323-2.3v2.011h3.964V44.426H490.71V46.47a4.822,4.822,0,0,0-4.323-2.271c-3.184,0-5.394,2.011-5.394,6.715V56.2C480.993,60.874,483.138,62.95,486.387,62.95Zm1.463-3.8c-1.56,0-2.6-1.006-2.6-3.277V51.239c0-2.239,1.04-3.244,2.6-3.244,1.5,0,2.6.973,2.6,3.179v4.7C490.45,58.117,489.41,59.155,487.85,59.155Zm13.52-7.916c0-2.239,1.04-3.244,2.6-3.244,1.625,0,2.6.941,2.6,3.471v3.99c0,2.725-.91,3.763-2.6,3.763-1.787,0-2.6-1.071-2.6-3.828V51.239Zm5.2,12.588c0,1.687-.845,2.5-2.567,2.5s-2.568-.876-2.568-2.141h-4.094c0,2.79,1.364,5.45,6.662,5.45,5.264,0,6.792-2.368,6.792-6.748V44.426H506.83V46.47a4.916,4.916,0,0,0-4.452-2.239c-3.153,0-5.265,2.076-5.265,6.683V56.2c0,4.672,2.145,6.716,5.395,6.716a4.24,4.24,0,0,0,4.062-2.271v3.179Zm16.12-7.007v0.389a2.334,2.334,0,0,1-2.6,2.3,2.682,2.682,0,0,1-2.632-2.725V54.807h9.457V51.239c0-4.477-2.535-7.04-6.825-7.04-4.354,0-6.857,2.758-6.857,7.2v4.444c0,4.38,2.5,7.137,6.857,7.137,4.29,0,6.825-2.693,6.825-6.034v-0.13H522.69Zm-5.232-6.326a2.471,2.471,0,0,1,2.632-2.79c1.593,0,2.6.811,2.6,3.244v0.876h-5.232v-1.33Zm20.508-6.261c-2.08-.26-4.29.649-4.81,2.66V44.426h-3.965V62.658h4.225V52.634c0-2.92,1.3-4.477,4.55-4.218V44.231Zm4.226,24.656h4.322c2.5-8.143,5.037-16.286,7.539-24.461h-4.517l-3.217,11.809L543.1,44.426h-4.55l5.59,18.2Z"/>
</svg>
